<?xml version="1.0" encoding="iso-8859-1"?>
<!-- Uploaded to: SVG Repo, www.svgrepo.com, Generator: SVG Repo Mixer Tools -->
<svg version="1.1" id="Layer_1" xmlns="http://www.w3.org/2000/svg" xmlns:xlink="http://www.w3.org/1999/xlink" 
	 viewBox="0 0 508 508" xml:space="preserve">
<path style="fill:#56ACE0;" d="M465.75,187H42.35c-7.8,0-14.1,6.3-14.1,14.1v264.6c0,7.8,6.3,14.1,14.1,14.1h423.3
	c7.8,0,14.1-6.3,14.1-14.1V201.1C479.85,193.3,473.45,187,465.75,187z"/>
<g>
	<path style="fill:#FFC10D;" d="M349.45,406.5c-7.6,0-13.9,6.2-13.9,13.9c0,7.6,6.2,13.9,13.9,13.9c7.6,0,13.9-6.2,13.9-13.9
		S357.15,406.5,349.45,406.5z"/>
	<path style="fill:#FFC10D;" d="M405.45,406.5c-7.6,0-13.9,6.2-13.9,13.9c0,7.6,6.2,13.9,13.9,13.9c7.6,0,13.9-6.2,13.9-13.9
		C419.25,412.7,413.05,406.5,405.45,406.5z"/>
</g>
<g>
	<path style="fill:#194F82;" d="M405.45,378.3c-10.7,0-20.5,4.1-28,10.7c-7.4-6.6-17.2-10.7-28-10.7c-23.2,0-42.1,18.9-42.1,42.1
		s18.9,42.1,42.1,42.1c10.7,0,20.5-4.1,28-10.7c7.4,6.7,17.2,10.7,28,10.7c23.2,0,42.1-18.9,42.1-42.1
		C447.55,397.2,428.65,378.3,405.45,378.3z M405.45,434.2c-7.6,0-13.9-6.2-13.9-13.9c0-7.6,6.2-13.9,13.9-13.9
		c7.6,0,13.9,6.2,13.9,13.9C419.25,428,413.05,434.2,405.45,434.2z M349.45,434.2c-7.6,0-13.9-6.2-13.9-13.9
		c0-7.6,6.2-13.9,13.9-13.9c7.6,0,13.9,6.2,13.9,13.9S357.15,434.2,349.45,434.2z"/>
	<path style="fill:#194F82;" d="M71.75,330.1c-7.8,0-14.1,6.3-14.1,14.1c0,7.8,6.3,14.1,14.1,14.1h30.9c7.8,0,14.1-6.3,14.1-14.1
		c0-7.8-6.3-14.1-14.1-14.1H71.75z"/>
	<path style="fill:#194F82;" d="M181.95,358.3h30.9c7.8,0,14.1-6.3,14.1-14.1c0-7.8-6.3-14.1-14.1-14.1h-30.9
		c-7.8,0-14.1,6.3-14.1,14.1C167.85,352,174.25,358.3,181.95,358.3z"/>
	<path style="fill:#194F82;" d="M337.25,344.2c0-7.8-6.3-14.1-14.1-14.1h-30.9c-7.8,0-14.1,6.3-14.1,14.1c0,7.8,6.3,14.1,14.1,14.1
		h30.9C330.95,358.3,337.25,352,337.25,344.2z"/>
	<path style="fill:#194F82;" d="M433.45,330.1h-30.9c-7.8,0-14.1,6.3-14.1,14.1c0,7.8,6.3,14.1,14.1,14.1h30.9
		c7.8,0,14.1-6.3,14.1-14.1S441.25,330.1,433.45,330.1z"/>
	<path style="fill:#194F82;" d="M222.45,420.1H71.75c-7.8,0-14.1,6.3-14.1,14.1c0,7.8,6.3,14.1,14.1,14.1h150.7
		c7.8,0,14.1-6.3,14.1-14.1C236.65,426.5,230.25,420.1,222.45,420.1z"/>
</g>
<rect x="80.65" y="232.5" style="fill:#FFC10D;" width="42.2" height="42.2"/>
<g>
	<path style="fill:#194F82;" d="M136.95,204.3h-70.5c-7.8,0-14.1,6.3-14.1,14.1v70.4c0,7.8,6.3,14.1,14.1,14.1h70.4
		c7.8,0,14.1-6.3,14.1-14.1v-70.4C151.05,210.6,144.75,204.3,136.95,204.3z M122.85,274.7h-42.2v-42.2h42.2V274.7z"/>
	<path style="fill:#194F82;" d="M465.75,158.7h-10.8L308.55,12.4c-8-8-18.6-12.4-29.9-12.4s-21.9,4.4-29.9,12.4l-146.4,146.3h-60
		c-23.3,0-42.3,19-42.3,42.4v264.6c0,23.3,19,42.3,42.3,42.3h423.3c23.3,0,42.3-19,42.3-42.3V201.1
		C508.05,177.7,489.05,158.7,465.75,158.7z M414.95,158.7h-79.6l39.8-39.8L414.95,158.7z M325.35,69.1l29.8,29.8l-59.7,59.7h-59.7
		L325.35,69.1z M268.65,32.4c5.3-5.3,14.6-5.3,20,0l16.8,16.8l-109.6,109.5h-53.6L268.65,32.4z M479.85,465.7
		c0,7.8-6.3,14.1-14.1,14.1H42.35c-7.8,0-14.1-6.3-14.1-14.1V201.1c0-7.8,6.3-14.1,14.1-14.1h423.3c7.8,0,14.1,6.3,14.1,14.1v264.6
		H479.85z"/>
</g>
<g>
	<path style="fill:#FFFFFF;" d="M195.85,158.7l109.6-109.5l-16.8-16.8c-5.3-5.3-14.6-5.3-20,0l-126.4,126.3H195.85z"/>
	<polygon style="fill:#FFFFFF;" points="335.35,158.7 414.95,158.7 375.15,118.9 	"/>
</g>
<polygon style="fill:#FFC10D;" points="325.35,69.1 235.75,158.7 295.45,158.7 355.25,99 "/>
</svg>